<svg width="613" height="357" viewBox="0 0 613 357" fill="none" xmlns="http://www.w3.org/2000/svg">
<path d="M62.3633 333H52.9793L17.7433 279.824V333H8.72727V267.772H20.7793L53.3473 317.82V267.772H62.3633V333ZM83.5872 306.32H107.783C107.599 299.972 103.459 295.004 95.6392 295.004C88.3712 295.004 83.9552 300.616 83.5872 306.32ZM109.071 317.82L116.523 320.396C114.039 328.216 106.955 334.38 96.6512 334.38C84.7832 334.38 74.3872 325.732 74.3872 310.736C74.3872 296.844 84.4152 287.368 95.5472 287.368C109.163 287.368 116.799 296.752 116.799 310.552C116.799 311.656 116.707 312.76 116.615 313.312H83.3112C83.4952 321.224 89.1992 326.744 96.6512 326.744C103.827 326.744 107.415 322.788 109.071 317.82ZM152.321 288.748H161.245L172.745 322.052L182.497 288.748H191.605L177.253 333H168.329L156.553 299.328L145.053 333H135.945L121.409 288.748H130.885L140.821 322.052L152.321 288.748ZM233.278 333H224.262V267.772H263.914V276.144H233.278V297.12H261.062V305.584H233.278V333ZM296.242 288.288V297.488C294.954 297.304 293.666 297.212 292.47 297.212C285.202 297.212 280.326 301.076 280.326 310.828V333H271.678V288.748H280.142V296.476C283.362 289.668 288.882 288.012 293.39 288.012C294.586 288.012 295.782 288.196 296.242 288.288ZM302.7 321.132C302.7 313.22 308.496 308.804 316.132 307.7L328.092 305.952C330.76 305.584 331.496 304.204 331.496 302.64C331.496 298.316 328.644 294.728 321.928 294.728C315.856 294.728 312.452 298.5 311.9 303.652L303.62 301.72C304.54 293.256 312.176 287.368 321.744 287.368C334.992 287.368 340.144 294.912 340.144 303.56V325.732C340.144 329.596 340.512 331.896 340.696 333H332.232C332.048 331.896 331.772 330.24 331.772 327.02C329.84 330.148 325.424 334.38 317.512 334.38C308.496 334.38 302.7 328.124 302.7 321.132ZM318.708 327.112C325.792 327.112 331.496 323.708 331.496 314.048V312.024L317.972 314.048C314.292 314.6 311.532 316.716 311.532 320.672C311.532 323.984 314.292 327.112 318.708 327.112ZM350.396 335.392L358.768 333.46C359.412 339.624 364.104 344.316 370.82 344.316C380.112 344.316 384.344 339.532 384.344 329.964V323.616C382.228 327.664 377.444 330.884 370.82 330.884C359.044 330.884 350.488 321.96 350.488 309.448C350.488 297.488 358.676 287.92 370.82 287.92C377.628 287.92 382.228 290.496 384.436 294.912V288.748H392.992V329.688C392.992 340.912 387.472 351.86 370.82 351.86C359.78 351.86 351.5 344.868 350.396 335.392ZM372.108 323.616C379.56 323.616 384.712 318.004 384.712 309.448C384.712 300.892 379.56 295.28 372.108 295.28C364.472 295.28 359.32 300.892 359.32 309.448C359.32 318.096 364.288 323.616 372.108 323.616ZM415.359 333H406.803V288.748H415.083V294.636C417.843 289.76 423.363 287.46 428.515 287.46C434.035 287.46 439.371 290.128 441.763 295.832C445.259 289.484 450.963 287.46 456.575 287.46C464.303 287.46 471.847 292.704 471.847 304.296V333H463.291V305.216C463.291 299.42 460.439 295.096 453.907 295.096C447.835 295.096 443.695 299.88 443.695 306.228V333H435.047V305.216C435.047 299.512 432.287 295.096 425.663 295.096C419.499 295.096 415.359 299.696 415.359 306.32V333ZM491.298 306.32H515.494C515.31 299.972 511.17 295.004 503.35 295.004C496.082 295.004 491.666 300.616 491.298 306.32ZM516.782 317.82L524.234 320.396C521.75 328.216 514.666 334.38 504.362 334.38C492.494 334.38 482.098 325.732 482.098 310.736C482.098 296.844 492.126 287.368 503.258 287.368C516.874 287.368 524.51 296.752 524.51 310.552C524.51 311.656 524.418 312.76 524.326 313.312H491.022C491.206 321.224 496.91 326.744 504.362 326.744C511.538 326.744 515.126 322.788 516.782 317.82ZM544.197 307.424V333H535.549V288.748H544.013V295.096C547.233 289.576 552.477 287.46 557.629 287.46C568.209 287.46 573.453 295.096 573.453 304.94V333H564.805V306.412C564.805 300.248 562.229 295.28 554.501 295.28C547.693 295.28 544.197 300.708 544.197 307.424ZM598.802 274.764V288.748H608.37V296.568H598.802V319.568C598.802 323.616 600.458 325.64 604.966 325.64C606.07 325.64 607.634 325.456 608.37 325.272V332.632C607.634 332.908 605.426 333.46 602.482 333.46C594.938 333.46 590.154 328.86 590.154 320.856V296.568H581.69V288.748H584.082C588.866 288.748 590.89 285.804 590.89 281.94V274.764H598.802Z" fill="white"/>
<rect x="216" y="93.2197" width="18.6" height="182.963" transform="rotate(-90 216 93.2197)" fill="white"/>
<rect x="253.754" y="9.15918" width="18.3185" height="183.185" transform="rotate(-30 253.754 9.15918)" fill="white"/>
<rect x="345.145" y="0.197754" width="18.3185" height="183.185" transform="rotate(30 345.145 0.197754)" fill="white"/>
</svg>
